<?xml version="1.0"?>
<svg xmlns="http://www.w3.org/2000/svg" xmlns:xlink="http://www.w3.org/1999/xlink" version="1.1" id="Layer_1" x="0px" y="0px" viewBox="0 0 512 512" style="enable-background:new 0 0 512 512;" xml:space="preserve" width="512px" height="512px"><g><g>
	<g>
		<g>
			<path d="M405.333,0H106.667C83.135,0,64,19.135,64,42.667v426.667C64,492.865,83.135,512,106.667,512h298.667     C428.865,512,448,492.865,448,469.333V42.667C448,19.135,428.865,0,405.333,0z M128,490.667h-21.333     c-11.76,0-21.333-9.573-21.333-21.333V42.667c0-11.76,9.573-21.333,21.333-21.333H128V490.667z M426.667,469.333     c0,11.76-9.573,21.333-21.333,21.333h-256V21.333h256c11.76,0,21.333,9.573,21.333,21.333V469.333z" data-original="#000000" class="active-path" data-old_color="#000000" fill="#006633"/>
			<path d="M288,256c29.406,0,53.333-23.927,53.333-53.333S317.406,149.333,288,149.333s-53.333,23.927-53.333,53.333     S258.594,256,288,256z M288,170.667c17.646,0,32,14.354,32,32c0,17.646-14.354,32-32,32s-32-14.354-32-32     C256,185.021,270.354,170.667,288,170.667z" data-original="#000000" class="active-path" data-old_color="#000000" fill="#006633"/>
			<path d="M360.958,288.677c-17.031-10.042-43.51-22.01-72.958-22.01s-55.927,11.969-72.958,22.01     C200.823,297.063,192,313.344,192,331.167V338c0,13.604,10.25,24.667,22.854,24.667h146.292C373.75,362.667,384,351.604,384,338     v-6.833C384,313.344,375.177,297.063,360.958,288.677z M362.667,338c0,2.219-1.26,3.333-1.521,3.333H214.854     c-0.26,0-1.521-1.115-1.521-3.333v-6.833c0-10.156,4.927-19.615,12.542-24.115C240.615,298.365,263.365,288,288,288     s47.385,10.365,62.125,19.052c7.615,4.5,12.542,13.958,12.542,24.115V338z" data-original="#000000" class="active-path" data-old_color="#000000" fill="#006633"/>
		</g>
	</g>
</g></g> </svg>
